<?xml version="1.0" encoding="UTF-8" standalone="no" ?>
<!DOCTYPE svg PUBLIC "-//W3C//DTD SVG 1.1//EN" "http://www.w3.org/Graphics/SVG/1.1/DTD/svg11.dtd">
<svg xmlns="http://www.w3.org/2000/svg" xmlns:xlink="http://www.w3.org/1999/xlink" version="1.1" width="389" height="478" viewBox="0 0 389 478" xml:space="preserve">
<desc>Created with Fabric.js 3.6.6</desc>
<defs>
</defs>
<rect x="0" y="0" width="100%" height="100%" fill="rgba(95, 39, 39, 0)"></rect>
<g transform="matrix(1 0 0 1 194.97 239.73)"  >
<g style=""   >
		<g transform="matrix(1.62 0 0 1.62 -3.15 16.2)"  >
<path style="stroke: none; stroke-width: 1; stroke-dasharray: none; stroke-linecap: butt; stroke-dashoffset: 0; stroke-linejoin: miter; stroke-miterlimit: 4; fill: rgb(254,133,114); fill-rule: nonzero; opacity: 1;"  transform=" translate(-1104.01, -288.44)" d="M 1203.623 227.15 c -0.66 -43.094 -60.63 -76.158 -94.622 -76.192 v -0.001 l -12.348 0.189 v 0.001 c -33.974 1.075 -92.904 35.96 -92.244 79.054 c 0 0 11.3 88.016 17.289 122.534 c 5.989 34.519 65.56 73.188 85.339 73.188 c 19.779 0 78.129 -41.082 83.057 -75.768 C 1195.025 315.471 1203.623 227.15 1203.623 227.15 z" stroke-linecap="round" />
</g>
		<g transform="matrix(1.62 0 0 1.62 -165.19 71.71)"  >
<path style="stroke: none; stroke-width: 1; stroke-dasharray: none; stroke-linecap: butt; stroke-dashoffset: 0; stroke-linejoin: miter; stroke-miterlimit: 4; fill: rgb(254,133,114); fill-rule: nonzero; opacity: 1;"  transform=" translate(-1004.12, -322.01)" d="M 1022.004 350.485 c -7.663 -4.72 -15.384 -9.485 -21.844 -15.345 c -6.46 -5.86 -11.649 -12.97 -13.151 -20.659 c -1.501 -7.689 -1.793 -17.189 8.13 -20.642 c 8.326 -2.897 25.792 15.281 25.792 15.281 L 1022.004 350.485 z" stroke-linecap="round" />
</g>
		<g transform="matrix(1.62 0 0 1.62 157.92 67.01)"  >
<path style="stroke: none; stroke-width: 1; stroke-dasharray: none; stroke-linecap: butt; stroke-dashoffset: 0; stroke-linejoin: miter; stroke-miterlimit: 4; fill: rgb(254,133,114); fill-rule: nonzero; opacity: 1;"  transform=" translate(-1202.53, -319.13)" d="M 1185.403 347.982 c 7.515 -4.953 15.087 -9.951 21.364 -16.007 s 11.247 -13.321 12.512 -21.052 c 1.265 -7.731 1.266 -17.236 -8.758 -20.383 c -8.411 -2.641 -25.312 16.064 -25.312 16.064 L 1185.403 347.982 z" stroke-linecap="round" />
</g>
		<g transform="matrix(1.62 0 0 1.62 -3.24 91.7)"  >
<path style="stroke: none; stroke-width: 1; stroke-dasharray: none; stroke-linecap: butt; stroke-dashoffset: 0; stroke-linejoin: miter; stroke-miterlimit: 4; fill: rgb(176,79,46); fill-rule: nonzero; opacity: 1;"  transform=" translate(-1103.49, -334.2)" d="M 1107.431 340.512 c 0.575 -0.247 1.973 -0.919 2.097 -1.707 s -3.045 -0.962 -4.606 -1.373 c -1.561 -0.41 -3.154 -1.358 -3.368 -3.009 c -0.267 -2.053 1.688 -4 1.991 -6.114 c 0.021 -0.144 0.032 -0.287 0.035 -0.43 c -0.884 -1.748 -2.774 -1.224 -3.841 -0.087 c -0.706 0.752 -1.115 1.727 -1.438 2.689 c -0.706 2.1 -1.091 4.334 -0.684 6.388 c 0.407 2.054 1.704 3.899 3.64 4.53 C 1103.195 342.032 1105.361 341.402 1107.431 340.512 z" stroke-linecap="round" />
</g>
		<g transform="matrix(1.62 0 0 1.62 68.15 26.32)"  >
<path style="stroke: none; stroke-width: 1; stroke-dasharray: none; stroke-linecap: butt; stroke-dashoffset: 0; stroke-linejoin: miter; stroke-miterlimit: 4; fill: rgb(26,26,26); fill-rule: nonzero; opacity: 1;"  transform=" translate(-1147.39, -294.06)" d="M 1139.194 293.431 c 5.551 -2.838 12.3 -0.545 15.791 5.28 c 0.494 0.824 1.379 1.217 2.162 0.673 c 0.687 -0.477 1.064 -1.736 0.567 -2.566 c -2.105 -3.513 -5.058 -6.161 -8.53 -7.475 c -3.823 -1.446 -7.932 -1.018 -11.586 0.85 c -0.784 0.401 -0.96 1.768 -0.567 2.566 C 1137.505 293.72 1138.407 293.833 1139.194 293.431 L 1139.194 293.431 z" stroke-linecap="round" />
</g>
		<g transform="matrix(1.62 0 0 1.62 -65.6 26.4)"  >
<path style="stroke: none; stroke-width: 1; stroke-dasharray: none; stroke-linecap: butt; stroke-dashoffset: 0; stroke-linejoin: miter; stroke-miterlimit: 4; fill: rgb(26,26,26); fill-rule: nonzero; opacity: 1;"  transform=" translate(-1065.18, -294.06)" d="M 1073.392 293.59 c -5.51 -2.917 -12.292 -0.718 -15.864 5.056 c -0.505 0.817 -1.396 1.197 -2.172 0.642 c -0.68 -0.486 -1.04 -1.751 -0.531 -2.574 c 2.155 -3.483 5.144 -6.089 8.635 -7.354 c 3.843 -1.392 7.946 -0.906 11.573 1.014 c 0.778 0.412 0.935 1.781 0.531 2.574 C 1075.077 293.903 1074.174 294.004 1073.392 293.59 L 1073.392 293.59 z" stroke-linecap="round" />
</g>
		<g transform="matrix(1.62 0 0 1.62 66.11 53.68)"  >
<path style="stroke: none; stroke-width: 1; stroke-dasharray: none; stroke-linecap: butt; stroke-dashoffset: 0; stroke-linejoin: miter; stroke-miterlimit: 4; fill: rgb(26,26,26); fill-rule: nonzero; opacity: 1;"  transform=" translate(-1146.11, -310.82)" d="M 1155.381 311.271 c -0.206 6.343 -4.833 11.092 -9.953 10.911 c -5.121 -0.182 -8.797 -5.225 -8.591 -11.568 c 0.206 -6.343 4.524 -11.337 9.645 -11.156 C 1151.603 299.639 1155.587 304.928 1155.381 311.271 z" stroke-linecap="round" />
</g>
		<g transform="matrix(1.62 0 0 1.62 -62.98 53.21)"  >
<path style="stroke: none; stroke-width: 1; stroke-dasharray: none; stroke-linecap: butt; stroke-dashoffset: 0; stroke-linejoin: miter; stroke-miterlimit: 4; fill: rgb(26,26,26); fill-rule: nonzero; opacity: 1;"  transform=" translate(-1066.86, -310.59)" d="M 1057.588 310.155 c -0.206 6.343 3.285 11.846 8.405 12.027 c 5.121 0.182 9.932 -5.027 10.138 -11.369 c 0.206 -6.343 -3.778 -11.632 -8.899 -11.814 C 1062.113 298.817 1057.794 303.812 1057.588 310.155 z" stroke-linecap="round" />
</g>
		<g transform="matrix(1.62 0 0 1.62 0.69 120.37)"  >
<path style="stroke: none; stroke-width: 1; stroke-dasharray: none; stroke-linecap: butt; stroke-dashoffset: 0; stroke-linejoin: miter; stroke-miterlimit: 4; fill: rgb(181,45,45); fill-rule: nonzero; opacity: 1;"  transform=" translate(-1106.06, -351.82)" d="M 1105.767 360.292 c -11.763 0 -23.349 -4.645 -31.85 -12.782 c -0.827 -0.791 -0.855 -2.102 -0.064 -2.928 s 2.102 -0.855 2.928 -0.064 c 7.736 7.405 18.281 11.633 28.984 11.633 c 0.131 0 0.26 -0.001 0.392 -0.002 c 10.838 -0.104 21.462 -4.549 29.146 -12.194 c 0.811 -0.807 2.122 -0.802 2.929 0.008 c 0.807 0.811 0.803 2.122 -0.008 2.929 c -8.444 8.401 -20.118 13.285 -32.028 13.4 C 1106.053 360.292 1105.91 360.292 1105.767 360.292 z" stroke-linecap="round" />
</g>
		<g transform="matrix(1.62 0 0 1.62 4 -85.15)"  >
<path style="stroke: none; stroke-width: 1; stroke-dasharray: none; stroke-linecap: butt; stroke-dashoffset: 0; stroke-linejoin: miter; stroke-miterlimit: 4; fill: rgb(30,45,70); fill-rule: nonzero; opacity: 1;"  transform=" translate(-1108.5, -226.01)" d="M 1218.193 241.208 c 4.408 -0.438 8.292 -4.745 7.616 -9.303 c -0.845 -5.695 -3.208 -10.981 -6.771 -15.276 c 2.386 -0.746 4.502 -2.504 5.484 -4.743 c 1.948 -4.442 -0.285 -9.069 -4.369 -11.201 c -4.515 -2.357 -9.154 -4.409 -13.923 -6.186 c -0.113 -0.156 -0.221 -0.317 -0.337 -0.47 c 1.047 -0.862 1.899 -1.916 2.399 -3.055 c 2.035 -4.641 -0.417 -8.828 -4.369 -11.201 c -5.084 -3.053 -10.415 -5.629 -15.909 -7.779 c 4.137 -3.833 4.792 -11.377 -1.972 -13.864 c -7.689 -2.827 -15.302 -3.159 -22.665 -1.206 c -3.477 -8.422 -9.036 -15.843 -16.46 -21.568 c -5.572 -4.297 -11.971 -0.317 -13.494 4.849 c -3.57 -3.298 -7.75 -5.938 -12.405 -7.679 c -4.295 -1.606 -9.285 -0.001 -11.201 4.369 c -0.255 0.582 -0.43 1.196 -0.538 1.825 c -4.472 -3.721 -9.831 -6.306 -15.972 -7.465 c -4.97 -0.938 -8.195 2.135 -9.184 5.914 c -8.549 -2.631 -17.386 -2.55 -26.201 -0.081 c -3.063 0.858 -4.993 3.848 -5.386 6.945 c -4.657 0.382 -9.275 1.265 -13.88 2.63 c -5.044 1.495 -6.255 5.927 -5.014 9.796 c -8.331 1.64 -15.911 5.356 -19.471 13.17 c -1.861 4.085 -0.331 7.638 2.426 9.729 c -8.898 3.789 -15.637 12.93 -16.003 22.638 c -0.054 1.445 0.152 2.863 0.598 4.159 c -4.006 2.778 -7.173 6.715 -8.67 11.481 c -1.328 4.229 -0.234 9.417 4.369 11.201 c 0.067 0.026 0.138 0.044 0.206 0.068 c -3.309 3.667 -5.527 8.297 -5.952 13.335 c -0.385 4.572 2.299 8.97 7.066 9.725 c 0.972 0.154 1.982 0.102 2.969 -0.11 c 0.042 0.284 0.094 0.577 0.137 0.862 c -3.782 5.585 -6.09 12.147 -6.353 18.963 c -0.177 4.583 2.154 8.947 7.066 9.725 c 1.189 0.188 2.486 0.055 3.735 -0.331 c -2.085 6.384 -2.584 13.257 -1.346 19.891 c 0.311 1.664 1.002 3.2 1.991 4.455 c -0.537 0.589 -1.083 1.172 -1.646 1.743 c -3.226 3.27 -1.973 9.298 1.343 11.949 c 3.897 3.115 8.713 1.937 11.948 -1.343 c 8.715 -8.834 14.334 -19.818 17.197 -31.835 c 0.121 -0.507 0.185 -0.99 0.222 -1.461 c 19.038 -2.07 35.005 -6.496 50.949 -16.499 c 1.805 3.351 5.542 5.614 10.141 3.919 c 3.929 -1.448 7.744 -3.195 11.423 -5.193 c 0.008 0.021 0.01 0.043 0.018 0.064 c 1.697 4.505 6.553 6.349 10.949 4.969 c 6.674 -2.094 12.806 -5.983 17.583 -11.109 c 1.671 4.77 7.577 8.478 13.186 4.91 c 5.048 -3.211 10.22 -6.825 14.734 -11.009 c -0.225 2.353 -0.424 4.71 -0.567 7.074 c -0.277 4.579 2.224 8.958 7.066 9.725 c 1.778 0.282 3.743 -0.118 5.44 -1.021 c -0.133 0.771 -0.172 1.601 -0.077 2.5 c 1.391 13.247 5.004 28.672 15.673 37.592 c 6.344 5.305 13.962 -0.996 13.663 -7.424 c 2.599 1.132 5.569 1.062 8.173 -0.83 c 3.433 -2.494 4.953 -8.424 1.881 -11.873 c -3.686 -4.137 -2.9 -10.635 -3.142 -16.363 c 2.635 -1.097 4.512 -3.601 5.323 -6.58 c 2.485 -9.126 0.974 -18.357 -3.275 -26.571 C 1215.718 241.153 1216.922 241.334 1218.193 241.208 z" stroke-linecap="round" />
</g>
</g>
</g>
</svg>